<svg width="100%" viewBox="0 0 680 440" xmlns="http://www.w3.org/2000/svg" style="font-family: sans-serif; background: #ffffff;">
  <defs>
    <marker id="arrPurple" viewBox="0 0 10 10" refX="8" refY="5" markerWidth="6" markerHeight="6" orient="auto-start-reverse">
      <path d="M2 1L8 5L2 9" fill="none" stroke="#534AB7" stroke-width="1.5" stroke-linecap="round" stroke-linejoin="round"/>
    </marker>
    <marker id="arrAmber" viewBox="0 0 10 10" refX="8" refY="5" markerWidth="6" markerHeight="6" orient="auto-start-reverse">
      <path d="M2 1L8 5L2 9" fill="none" stroke="#BA7517" stroke-width="1.5" stroke-linecap="round" stroke-linejoin="round"/>
    </marker>
    <marker id="arrGray" viewBox="0 0 10 10" refX="8" refY="5" markerWidth="6" markerHeight="6" orient="auto-start-reverse">
      <path d="M2 1L8 5L2 9" fill="none" stroke="#888888" stroke-width="1.5" stroke-linecap="round" stroke-linejoin="round"/>
    </marker>
  </defs>

  <!-- Left column header -->
  <rect x="20" y="16" width="200" height="390" rx="12" fill="none" stroke="#cccccc" stroke-width="0.5" stroke-dasharray="4 3"/>
  <text x="120" y="36" font-size="12" fill="#888888" text-anchor="middle">GoT research</text>

  <!-- GoT boxes -->
  <rect x="32" y="48" width="176" height="56" rx="8" fill="#EEEDFE" stroke="#534AB7" stroke-width="0.5"/>
  <text x="120" y="70" font-size="13" font-weight="600" fill="#26215C" text-anchor="middle">Trust manifold M</text>
  <text x="120" y="88" font-size="11" fill="#534AB7" text-anchor="middle">Value directions + Phi</text>

  <rect x="32" y="122" width="176" height="56" rx="8" fill="#EEEDFE" stroke="#534AB7" stroke-width="0.5"/>
  <text x="120" y="144" font-size="13" font-weight="600" fill="#26215C" text-anchor="middle">Value alignment probe</text>
  <text x="120" y="162" font-size="11" fill="#534AB7" text-anchor="middle">Per-concept score</text>

  <rect x="32" y="196" width="176" height="56" rx="8" fill="#EEEDFE" stroke="#534AB7" stroke-width="0.5"/>
  <text x="120" y="218" font-size="13" font-weight="600" fill="#26215C" text-anchor="middle">Deception detection</text>
  <text x="120" y="236" font-size="11" fill="#534AB7" text-anchor="middle">Self-inconsistency flag</text>

  <rect x="32" y="270" width="176" height="56" rx="8" fill="#D3D1C7" stroke="#5F5E5A" stroke-width="0.5"/>
  <text x="120" y="292" font-size="13" font-weight="600" fill="#2C2C2A" text-anchor="middle">GoT API</text>
  <text x="120" y="310" font-size="11" fill="#5F5E5A" text-anchor="middle">POST /v1/probe</text>

  <!-- Right column header -->
  <rect x="460" y="16" width="200" height="390" rx="12" fill="none" stroke="#cccccc" stroke-width="0.5" stroke-dasharray="4 3"/>
  <text x="560" y="36" font-size="12" fill="#888888" text-anchor="middle">Cognitiv products</text>

  <!-- Cognitiv boxes -->
  <rect x="472" y="48" width="176" height="56" rx="8" fill="#E1F5EE" stroke="#0F6E56" stroke-width="0.5"/>
  <text x="560" y="70" font-size="13" font-weight="600" fill="#085041" text-anchor="middle">Sensemaking dashboard</text>
  <text x="560" y="88" font-size="11" fill="#0F6E56" text-anchor="middle">Group epistemic state</text>

  <rect x="472" y="122" width="176" height="56" rx="8" fill="#E1F5EE" stroke="#0F6E56" stroke-width="0.5"/>
  <text x="560" y="144" font-size="13" font-weight="600" fill="#085041" text-anchor="middle">Divergence API</text>
  <text x="560" y="162" font-size="11" fill="#0F6E56" text-anchor="middle">Epistemic distance</text>

  <rect x="472" y="196" width="176" height="56" rx="8" fill="#FAEEDA" stroke="#BA7517" stroke-width="0.5"/>
  <text x="560" y="218" font-size="13" font-weight="600" fill="#633806" text-anchor="middle">Hidden value divergence</text>
  <text x="560" y="236" font-size="11" fill="#854F0B" text-anchor="middle">Surface consensus check</text>

  <rect x="472" y="270" width="176" height="56" rx="8" fill="#FAEEDA" stroke="#BA7517" stroke-width="0.5"/>
  <text x="560" y="292" font-size="13" font-weight="600" fill="#633806" text-anchor="middle">Self-inconsistency check</text>
  <text x="560" y="310" font-size="11" fill="#854F0B" text-anchor="middle">Per-viewpoint flag</text>

  <!-- Arrows GoT → Cognitiv -->
  <line x1="208" y1="76" x2="470" y2="76" stroke="#534AB7" stroke-width="1" marker-end="url(#arrPurple)"/>
  <text x="340" y="68" font-size="10" fill="#534AB7" text-anchor="middle">value direction coherence</text>

  <line x1="208" y1="150" x2="470" y2="150" stroke="#534AB7" stroke-width="1" marker-end="url(#arrPurple)"/>
  <text x="340" y="142" font-size="10" fill="#534AB7" text-anchor="middle">per-concept score</text>

  <line x1="208" y1="224" x2="470" y2="224" stroke="#BA7517" stroke-width="1" marker-end="url(#arrAmber)"/>
  <text x="340" y="216" font-size="10" fill="#BA7517" text-anchor="middle">hidden divergence signal</text>

  <line x1="208" y1="298" x2="470" y2="298" stroke="#BA7517" stroke-width="1" marker-end="url(#arrAmber)"/>
  <text x="340" y="290" font-size="10" fill="#BA7517" text-anchor="middle">POST /v1/probe per viewpoint</text>

  <!-- Feedback loop -->
  <path d="M560 408 Q560 428 340 428 Q120 428 120 390" fill="none" stroke="#888888" stroke-width="1" stroke-dasharray="4 3" marker-end="url(#arrGray)"/>
  <text x="340" y="422" font-size="10" fill="#888888" text-anchor="middle">real-world failure modes feed back into GoT research spikes</text>
</svg>
